{"title":"Irudhi Suttru 2016 Movies DVDScr XviD New Source +Sample ~ ☻rDX☻","uid":13376601,"size":741307738,"categoryP":"video","categoryS":"movies","magnet":"?xt=urn:btih:c4fb9e435fb0a216fa5cf03548004df42a1ef1f0&amp;dn=Irudhi+Suttru+2016+Movies+DVDScr+XviD+New+Source+%2BSample+%7E+%E2%98%BBrDX%E2%98%BB&amp;tr=udp%3A%2F%2Ftracker.leechers-paradise.org%3A6969&amp;tr=udp%3A%2F%2Fzer0day.ch%3A1337&amp;tr=udp%3A%2F%2Fopen.demonii.com%3A1337&amp;tr=udp%3A%2F%2Ftracker.coppersurfer.tk%3A6969&amp;tr=udp%3A%2F%2Fexodus.desync.com%3A6969","seeders":1,"leechers":0,"uploader":"basicssom","files":2,"time":1454216666,"description":"----------------------------------------------------------------\r\nIrudhi Suttru 2016 Tamil Movies DVDScr XviD AAC New Source with Sample ~ ☻rDX☻\r\n\r\nSCREEN SHOTS &amp; POSTER:\r\n  \nhttp://mobileshosting.com/2016/2/IrudhiSuttru/11.html  \nhttp://mobileshosting.com/2016/2/IrudhiSuttru/1.html  \nhttp://mobileshosting.com/2016/2/IrudhiSuttru/2.html  \nhttp://mobileshosting.com/2016/2/IrudhiSuttru/3.html  \nhttp://mobileshosting.com/2016/2/IrudhiSuttru/4.html  \nhttp://mobileshosting.com/2016/2/IrudhiSuttru/5.html  \nhttp://mobileshosting.com/2016/2/IrudhiSuttru/6.html  \nhttp://mobileshosting.com/2016/2/IrudhiSuttru/7.html  \nhttp://mobileshosting.com/2016/2/IrudhiSuttru/8.html  \nhttp://mobileshosting.com/2016/2/IrudhiSuttru/9.html  \nhttp://mobileshosting.com/2016/2/IrudhiSuttru/10.html\r\n\r\nFormat                                   : Matroska\r\nFormat version                           : Version 4 / Version 2\r\nFile size                                : 699 MiB\r\nDuration                                 : 1h 44mn\r\nOverall bit rate                         : 935 Kbps\r\nMovie name                               : Irudhi Suttru 2016 Tamil Movies DVDScr XviD AAC New Source ☻rDX☻\r\n\r\nVideo\r\nID                                       : 1\r\nFormat                                   : AVC\r\nFormat/Info                              : Advanced Video Codec\r\nFormat profile                           :   \r\nFormat settings, CABAC                   : Yes\r\nFormat settings, ReFrames                : 4 frames\r\nCodec ID                                 : V_MPEG4/ISO/AVC\r\nDuration                                 : 1h 44mn\r\nBit rate                                 : 837 Kbps\r\nWidth                                    : 608 pixels\r\nHeight                                   : 256 pixels\r\nDisplay aspect ratio                     : 2.40:1\r\nFrame rate mode                          : Constant\r\nFrame rate                               : 29.970 fps\r\nColor space                              : YUV\r\nChroma subsampling                       : 4:2:0\r\nBit depth                                : 8 bits\r\nScan type                                : Progressive\r\nBits/(Pixel*Frame)                       : 0.179\r\nStream size                              : 613 MiB (88%)\r\nTitle                                    : ☻rDX☻\r\nWriting library                          : XviD\r\nLanguage                                 : Tamil\r\nDefault                                  : Yes\r\nForced                                   : Yes\r\n\r\nAudio\r\nID                                       : 2\r\nFormat                                   : MPEG Audio\r\nFormat version                           : Version 1\r\nFormat profile                           : Layer 3\r\nMode                                     : Joint stereo\r\nMode extension                           : MS Stereo\r\nCodec ID                                 : A_MPEG/L3\r\nCodec ID/Hint                            : MP3\r\nDuration                                 : 1h 44mn\r\nBit rate mode                            : Constant\r\nBit rate                                 : 96.0 Kbps\r\nChannel(s)                               : 2 channels\r\nSampling rate                            : 48.0 KHz\r\nCompression mode                         : Lossy\r\nStream size                              : 71.7 MiB (10%)\r\nTitle                                    : ☻rDX☻\r\nLanguage                                 : Tamil\r\nDefault                                  : Yes\r\nForced                                   : Yes\r\n\r\nIMDB                                      \nhttp://www.imdb.com/title/tt5310090/","torrent":{"xt":"urn:btih:c4fb9e435fb0a216fa5cf03548004df42a1ef1f0","amp;dn":"Irudhi+Suttru+2016+Movies+DVDScr+XviD+New+Source+%2BSample+%7E+%E2%98%BBrDX%E2%98%BB","amp;tr":["udp%3A%2F%2Ftracker.leechers-paradise.org%3A6969","udp%3A%2F%2Fzer0day.ch%3A1337","udp%3A%2F%2Fopen.demonii.com%3A1337","udp%3A%2F%2Ftracker.coppersurfer.tk%3A6969","udp%3A%2F%2Fexodus.desync.com%3A6969"],"infoHash":"c4fb9e435fb0a216fa5cf03548004df42a1ef1f0","infoHashBuffer":{"type":"Buffer","data":[196,251,158,67,95,176,162,22,250,92,240,53,72,0,77,244,42,30,241,240]},"announce":[],"urlList":[]}}